<svg width="237" height="245" viewBox="0 0 237 245" fill="none" xmlns="http://www.w3.org/2000/svg">
<path fill-rule="evenodd" clip-rule="evenodd" d="M145.078 4.85111L145.103 4.8437C145.135 4.83403 145.166 4.82094 145.194 4.80495C146.52 4.29964 156.838 0.866907 170.615 0.125473C171.948 0.0577554 173.312 0.0155159 174.703 0.00381684C192.601 -0.146673 214.923 4.7532 231.091 25.4237L231.368 25.2072L231.091 25.4238C233.866 28.9709 235.198 35.3448 235.076 43.7559C234.953 52.1418 233.387 62.4623 230.462 73.8136C224.667 96.2992 213.553 122.776 197.845 146.189C197.53 145.356 197.039 144.533 196.442 143.682C195.85 142.839 195.134 141.943 194.356 140.968C194.095 140.642 193.827 140.306 193.554 139.961C193.158 139.46 192.75 138.934 192.334 138.381C192.492 138.402 192.657 138.335 192.752 138.193C198.523 129.58 199.478 120.969 199.065 112.679C198.894 109.245 198.487 105.857 198.091 102.553L198.09 102.546C198.009 101.87 197.929 101.198 197.85 100.53C197.389 96.5813 197.015 92.7611 197.143 89.0831L197.143 89.0827C197.294 84.629 197.876 80.8751 198.441 77.2303C198.519 76.7305 198.596 76.2328 198.672 75.7355C199.286 71.7025 199.801 67.7138 199.577 63.0077C199.657 62.8964 199.694 62.7721 199.713 62.6929C199.755 62.5072 199.761 62.2793 199.746 62.0343C199.717 61.5361 199.597 60.8472 199.391 60.0057C198.978 58.3166 198.201 55.9478 197.026 53.1281C194.675 47.487 190.722 40.0114 184.865 32.5226C176.113 21.3311 163.1 10.0991 144.839 4.93331L145.06 4.85972C145.064 4.85739 145.07 4.85451 145.078 4.85111ZM198.718 63.1838C183.361 60.7764 174.836 63.1357 170.617 67.9559C166.359 72.8201 166.322 80.3715 168.394 88.6825C170.459 96.9658 174.583 105.852 178.429 113.234C180.265 116.759 182.035 119.934 183.484 122.534L183.684 122.893C185.16 125.543 186.294 127.587 186.76 128.718L186.76 128.719C188.328 132.542 190.196 135.478 191.964 137.884C191.974 137.824 191.996 137.764 192.033 137.711C197.662 129.309 198.607 120.906 198.2 112.722C198.03 109.321 197.628 105.969 197.232 102.665L197.23 102.649C197.149 101.974 197.069 101.301 196.99 100.631C196.529 96.6798 196.147 92.8025 196.278 89.0531C196.431 84.5443 197.021 80.7385 197.586 77.0955L197.589 77.078C197.665 76.5845 197.741 76.0941 197.816 75.6052C198.422 71.6244 198.922 67.7422 198.718 63.1838ZM229.872 151.597L229.989 151.518C214.887 154.616 206.73 153.641 202.323 151.825C200.11 150.913 198.844 149.789 198.127 148.867C198.032 148.744 197.946 148.625 197.87 148.511C197.83 148.567 197.786 148.622 197.739 148.676C197.379 149.078 196.829 149.331 196.245 149.534C195.834 149.677 195.359 149.809 194.862 149.948L194.861 149.948C194.645 150.008 194.425 150.07 194.205 150.134C193.461 150.349 192.674 150.601 191.893 150.955C190.337 151.66 188.801 152.769 187.706 154.794C186.607 156.827 185.931 159.827 186.187 164.354C186.277 165.803 187.633 166.951 190.162 167.728C192.649 168.492 196.069 168.826 199.849 168.783C207.411 168.697 216.262 167.105 221.672 164.592C224.972 163.049 227.942 161.246 230.334 159.453C232.733 157.656 234.527 155.888 235.497 154.424C235.984 153.689 236.24 153.067 236.289 152.581C236.319 152.281 236.272 152.037 236.148 151.837C235.288 151.084 233.286 150.905 229.872 151.597ZM196.793 169.734C204.802 170.074 215.248 168.482 221.498 165.62C215.911 168.059 207.254 169.565 199.859 169.649C197.298 169.678 194.871 169.537 192.763 169.2C193.217 169.275 193.696 169.367 194.202 169.475L196.793 169.734ZM189.908 168.556C190.722 168.806 191.626 169.011 192.599 169.173C188.394 168.5 186.379 169.252 185.261 171.709L185.957 166.162C186.737 167.245 188.168 168.021 189.908 168.556ZM186.945 154.382C185.787 156.524 185.109 159.555 185.298 163.921L118.55 160.161C118.435 159.206 118.2 158.259 117.865 157.353C116.756 154.348 114.529 151.693 111.89 150.597C110.676 150.033 109.163 149.407 107.404 149.558C105.712 149.703 103.865 150.556 101.863 152.69C101.69 151.301 101.658 150.023 101.766 148.751C101.934 147.386 102.246 145.956 102.661 144.458C103.425 141.7 104.529 138.748 105.715 135.577C105.893 135.099 106.074 134.617 106.255 134.129C106.922 132.336 107.729 130.552 108.589 128.65C109.059 127.609 109.545 126.533 110.034 125.401C111.408 122.215 112.774 118.634 113.764 114.286C115.746 105.585 116.215 93.8596 112.318 76.1069C110.865 69.3722 107.31 65.5967 102.764 63.8387C98.5759 62.2189 93.5997 62.3319 88.7582 63.3131L93.121 12.1594C99.8139 7.18113 108.198 3.78521 118.775 3.02314C120.592 2.89463 122.476 2.84345 124.427 2.87521C153.454 3.34754 172.58 18.2195 184.183 33.0561C189.986 40.4763 193.902 47.8827 196.226 53.4612C197.389 56.2513 198.15 58.5767 198.55 60.2117C198.751 61.0323 198.857 61.6629 198.882 62.0849C198.888 62.1851 198.888 62.2674 198.886 62.3336C183.444 59.9075 174.499 62.2062 169.965 67.3855C165.406 72.5938 165.47 80.5344 167.554 88.8921C169.645 97.2776 173.807 106.237 177.661 113.634C179.504 117.171 181.279 120.356 182.727 122.956L182.928 123.315C184.419 125.991 185.517 127.976 185.959 129.047C188.054 134.155 190.673 137.711 192.875 140.498C193.156 140.854 193.43 141.197 193.694 141.527L193.694 141.528C194.467 142.495 195.158 143.36 195.733 144.18C196.503 145.276 197.031 146.247 197.251 147.2L197.251 147.203L197.251 147.204L197.253 147.21L197.255 147.219C197.353 147.66 197.262 147.91 197.093 148.098C196.891 148.325 196.525 148.52 195.96 148.716C195.577 148.849 195.145 148.97 194.663 149.104L194.662 149.105L194.661 149.105L194.66 149.105C194.439 149.167 194.207 149.231 193.964 149.302C193.206 149.521 192.373 149.787 191.535 150.167C189.852 150.93 188.15 152.153 186.945 154.382ZM87.8729 63.5023L92.1937 12.8408C91.8766 13.091 91.5638 13.3447 91.2552 13.6018C83.2985 20.231 78.0984 29.1701 74.7036 38.1674C71.3092 47.1637 69.7281 56.1962 68.9964 62.9844C68.6307 66.3773 68.4775 69.2066 68.4157 71.1862C68.3979 71.7572 68.3877 72.2574 68.3821 72.6801C68.6254 72.4378 68.911 72.1833 69.2328 71.92C70.3182 71.0318 71.8615 70.0072 73.7178 68.9709C77.4312 66.8979 82.4408 64.7544 87.6367 63.5561C87.7154 63.538 87.7942 63.5201 87.8729 63.5023ZM68.3793 74.0412C68.4303 73.9518 68.5058 73.8404 68.6156 73.7058C68.8725 73.391 69.2631 73.0141 69.7812 72.5902C70.8151 71.7442 72.3121 70.7474 74.1399 69.7271C77.7862 67.6916 82.7051 65.5867 87.7957 64.4082L81.1441 142.399C71.6748 135.527 65.7493 123.185 67.6723 109.51L67.6725 109.509C69.5384 95.8947 68.8127 83.8436 68.4443 77.7266V77.7265C68.3624 76.367 68.2982 75.3007 68.284 74.5755C68.3485 74.4976 68.3862 74.397 68.3834 74.288L68.2814 74.2907C68.2814 74.2906 68.2814 74.2906 68.2814 74.2906C68.3834 74.2879 68.3834 74.2877 68.3834 74.2875L68.3833 74.2854L68.3831 74.2761L68.3823 74.238C68.3816 74.2039 68.3807 74.1527 68.3798 74.0848C68.3796 74.0709 68.3795 74.0564 68.3793 74.0412ZM67.5115 73.8479C67.5108 73.7428 67.5104 73.6206 67.5104 73.4816C67.5108 72.9445 67.5189 72.1584 67.5501 71.1592C67.6125 69.161 67.767 66.3096 68.1354 62.8916C68.8719 56.0582 70.4648 46.9484 73.8933 37.8617C77.3215 28.7759 82.5933 19.6914 90.7009 12.9365C91.0483 12.647 91.4009 12.3618 91.7588 12.0812C84.5512 9.31608 38.6493 -7.04021 14.6863 15.0251C14.1714 15.5102 13.6672 16.0135 13.1742 16.5355C4.82872 25.3726 -0.372039 39.6528 0.747109 62.1003L0.747213 62.1024C0.961279 66.8548 2.77809 78.2826 5.88681 92.1801C8.99338 106.068 13.3824 122.388 18.7285 136.917C24.082 151.466 30.3704 164.149 37.2466 170.828C40.6787 174.161 44.2045 175.948 47.7926 175.796C51.378 175.645 55.1474 173.553 59.0565 168.853L59.0575 168.852C64.8487 161.937 70.3586 155.736 74.4206 151.263C76.4516 149.027 78.1209 147.223 79.2826 145.977C79.8634 145.355 80.3174 144.872 80.6263 144.544C80.7807 144.38 80.8989 144.256 80.9785 144.172L80.9944 144.155L81.0582 143.406C71.0837 136.405 64.8213 123.567 66.8146 109.391C68.665 95.8892 67.952 84.0051 67.5826 77.8466L67.5825 77.8462C67.4874 76.2611 67.4151 75.0553 67.4151 74.2989C67.4151 74.1488 67.4509 73.9975 67.5115 73.8479ZM81.8798 143.964L81.8551 144.254C81.9332 144.171 81.993 144.108 82.0338 144.064C81.9824 144.031 81.931 143.998 81.8798 143.964ZM89.5857 147.627C93.1418 148.767 96.9492 149.239 100.87 148.951C100.874 148.92 100.877 148.888 100.881 148.856C96.9655 149.198 93.1563 148.744 89.5857 147.627ZM81.9642 142.975L88.6815 64.213C93.5189 63.2015 98.4081 63.0826 102.452 64.6464C106.699 66.2891 110.074 69.8113 111.472 76.2902L111.472 76.2918C115.348 93.9489 114.867 105.542 112.92 114.093C111.945 118.371 110.601 121.899 109.238 125.058C108.764 126.157 108.285 127.219 107.817 128.254L107.817 128.254C106.948 130.177 106.12 132.009 105.444 133.827C105.263 134.312 105.083 134.793 104.905 135.271L104.905 135.271C103.72 138.437 102.601 141.43 101.826 144.227C101.471 145.511 101.185 146.761 100.999 147.976C94.0751 148.627 87.4658 146.706 81.9642 142.975ZM117.078 166.531C117.329 166.178 117.547 165.812 117.734 165.435C117.697 167.114 117.666 168.789 117.641 170.457C117.243 169.707 116.823 169.138 116.386 168.784L116.904 166.883C104.899 183.725 87.1939 180.961 79.5073 179.061C77.7726 178.61 75.7828 177.825 74.1534 176.854L74.2199 176.891C75.7899 177.76 77.6108 178.458 79.2192 178.877L79.2243 178.878C86.9414 180.786 104.905 183.608 117.078 166.532L117.078 166.531ZM71.1925 172.047C71.2086 171.978 71.2297 171.908 71.2564 171.837C72.1395 170.44 74.7384 169.086 80.0255 168.006C92.841 165.348 94.0888 163.765 98.0374 158.757C99.0916 157.421 100.338 155.839 102.049 153.928C102.041 153.885 102.034 153.843 102.027 153.8C102.082 153.738 102.137 153.676 102.193 153.614L102.194 153.613C104.215 151.339 105.976 150.549 107.477 150.421C108.996 150.291 110.331 150.828 111.533 151.386C111.539 151.389 111.545 151.391 111.55 151.393C113.916 152.373 116.004 154.811 117.053 157.653C118.1 160.491 118.078 163.633 116.372 166.029C104.536 182.633 87.0923 179.931 79.4348 178.038C77.8914 177.636 76.1399 176.964 74.6393 176.133C73.1211 175.293 71.9297 174.328 71.4188 173.374C71.1704 172.91 71.0938 172.47 71.1925 172.047ZM40.389 174.454C44.7421 177.309 49.3127 177.676 54.0287 174.601C51.9511 175.907 49.8828 176.575 47.8292 176.662C45.2698 176.77 42.7852 175.972 40.389 174.454ZM129.149 239.248C126.43 235.99 125.102 231.925 124.057 228.725L124.057 228.725L124.056 228.724L124.056 228.723L124.056 228.722L124.056 228.721C123.79 227.908 123.543 227.15 123.295 226.476C120.791 219.654 120.963 210.93 121.395 198.148C121.724 188.405 120.498 177.959 118.481 172.395C118.526 168.64 118.603 164.838 118.711 161.037L185.256 164.786L181.964 191.036L181.247 193.225C181.202 198.766 180.607 200.916 179.915 203.416C179.291 205.671 178.588 208.211 178.138 213.781C176.842 230.363 167.601 240.295 149.723 244.095C148.151 244.431 146.68 244.66 145.304 244.792C138.361 245.057 133.511 242.97 130.036 240.041C129.73 239.783 129.434 239.519 129.149 239.248ZM97.569 78.6188C94.4598 78.187 92.0415 74.905 92.2142 73.6959C92.387 72.4868 95.0643 71.7958 98.1735 72.2277C101.283 72.6595 103.701 73.955 103.528 75.2505C103.356 76.546 100.678 79.0506 97.569 78.6188ZM187.916 71.1913C188.089 72.4004 185.67 75.6824 182.561 76.1142C179.452 76.546 176.688 74.0414 176.602 72.7459C176.516 71.4504 178.848 70.1549 181.957 69.7231C185.066 69.2912 187.743 69.9822 187.916 71.1913Z" fill="white"/>
</svg>
